# xmcd CD database file
#
# Track frame offsets:
#	150
#	36872
#	57637
#	68687
#	87120
#	113212
#	143832
#	169590
#	200610
#	228980
#
# Disc length: 3381 seconds
#
# Revision: 0
# Processed by: cddbd v1.5.1PL0 Copyright (c) Steve Scherf et al.
# Submitted via: CDex 1.60beta1
#
DISCID=870d330a
DTITLE=Various Artist - Classics Jazz
DYEAR=1900
DGENRE=Jazz
TTITLE0=Joshua Redman/Imagination
TTITLE1=Chet Baker/How Deep Is The Ocean
TTITLE2=Glenn Ferris/Creole Blues
TTITLE3=Art Hodes/Tennessee Waltz
TTITLE4=Terrell Stafford/Send In The Clowns
TTITLE5=Abbey Lincoln/Left Alone
TTITLE6=McCoy Tyner/Good Morning Heartache
TTITLE7=Chris Connor/As Time Goes By
TTITLE8=Tommy Flanagan/A Child Is Born
TTITLE9=Kevin Mahogany/My Foolish Heart
EXTD=
EXTT0=
EXTT1=
EXTT2=
EXTT3=
EXTT4=
EXTT5=
EXTT6=
EXTT7=
EXTT8=
EXTT9=
PLAYORDER=
